<?xml version="1.0" encoding="UTF-8"?>
<svg id="Camada_2" data-name="Camada 2" xmlns="http://www.w3.org/2000/svg" xmlns:xlink="http://www.w3.org/1999/xlink" viewBox="0 0 529.04 90.33">
  <defs>
    <style>
      .cls-1 {
        fill: url(#Gradiente_sem_nome_39);
      }

      .cls-2 {
        fill: url(#Gradiente_sem_nome_45);
      }
    </style>
    <linearGradient id="Gradiente_sem_nome_45" data-name="Gradiente sem nome 45" x1="0" y1="37.32" x2="61.39" y2="37.32" gradientUnits="userSpaceOnUse">
      <stop offset="0" stop-color="#7bc7ff"/>
      <stop offset=".36" stop-color="#68b7f3"/>
      <stop offset="1" stop-color="#4b9fe1"/>
    </linearGradient>
    <linearGradient id="Gradiente_sem_nome_39" data-name="Gradiente sem nome 39" x1="80.54" y1="45.16" x2="529.04" y2="45.16" gradientUnits="userSpaceOnUse">
      <stop offset="0" stop-color="#7bc7ff"/>
      <stop offset="1" stop-color="#4b9fe1"/>
    </linearGradient>
  </defs>
  <g id="Camada_1-2" data-name="Camada 1">
    <path class="cls-2" d="M5.12,71.42c-1.36,0-2.56-.51-3.58-1.53-1.02-1.02-1.53-2.22-1.53-3.58V13.44c0-1.36,.51-2.56,1.53-3.58,1.02-1.02,2.22-1.53,3.58-1.53h5.54V3.21h5.54v5.12h28.99V3.21h5.54v5.12h5.54c1.36,0,2.56,.51,3.58,1.53s1.53,2.22,1.53,3.58v52.86c0,1.36-.51,2.56-1.53,3.58s-2.22,1.53-3.58,1.53H5.12Zm0-5.12H56.27V29.64H5.12v36.66Zm0-41.78H56.27V13.44H5.12v11.08Zm0,0v0Zm25.58,19.61c-.97,0-1.78-.33-2.43-.98s-.98-1.46-.98-2.43,.33-1.78,.98-2.43c.65-.65,1.46-.98,2.43-.98s1.78,.33,2.43,.98c.65,.65,.98,1.46,.98,2.43s-.33,1.78-.98,2.43c-.65,.65-1.46,.98-2.43,.98Zm-13.64,0c-.97,0-1.78-.33-2.43-.98-.65-.65-.98-1.46-.98-2.43s.33-1.78,.98-2.43c.65-.65,1.46-.98,2.43-.98s1.78,.33,2.43,.98,.98,1.46,.98,2.43-.33,1.78-.98,2.43-1.46,.98-2.43,.98Zm27.28,0c-.97,0-1.78-.33-2.43-.98s-.98-1.46-.98-2.43,.33-1.78,.98-2.43,1.46-.98,2.43-.98,1.78,.33,2.43,.98c.65,.65,.98,1.46,.98,2.43s-.33,1.78-.98,2.43-1.46,.98-2.43,.98Zm-13.64,13.64c-.97,0-1.78-.33-2.43-.98-.65-.65-.98-1.46-.98-2.43s.33-1.78,.98-2.43c.65-.65,1.46-.98,2.43-.98s1.78,.33,2.43,.98c.65,.65,.98,1.46,.98,2.43s-.33,1.78-.98,2.43c-.65,.65-1.46,.98-2.43,.98Zm-13.64,0c-.97,0-1.78-.33-2.43-.98-.65-.65-.98-1.46-.98-2.43s.33-1.78,.98-2.43,1.46-.98,2.43-.98,1.78,.33,2.43,.98,.98,1.46,.98,2.43-.33,1.78-.98,2.43-1.46,.98-2.43,.98Zm27.28,0c-.97,0-1.78-.33-2.43-.98s-.98-1.46-.98-2.43,.33-1.78,.98-2.43,1.46-.98,2.43-.98,1.78,.33,2.43,.98c.65,.65,.98,1.46,.98,2.43s-.33,1.78-.98,2.43c-.65,.65-1.46,.98-2.43,.98Z"/>
    <g>
      <path class="cls-1" d="M133.43,53.28h-37.44l-8.06,17.95h-7.39L111.25,4.03h7.01l30.72,67.2h-7.49l-8.06-17.95Zm-2.59-5.76L114.71,11.42l-16.13,36.09h32.25Z"/>
      <path class="cls-1" d="M197.75,20.73v44.35c0,17.37-8.54,25.25-25.25,25.25-9.22,0-18.24-2.78-23.52-7.78l3.46-5.18c4.8,4.32,12.09,6.91,19.87,6.91,12.77,0,18.62-5.86,18.62-18.33v-6.43c-4.22,6.43-11.42,9.79-19.68,9.79-14.4,0-25.34-10.08-25.34-24.57s10.94-24.38,25.34-24.38c8.45,0,15.74,3.46,19.97,10.08v-9.7h6.53Zm-6.62,24c0-10.94-8.06-18.43-19.2-18.43s-19.1,7.49-19.1,18.43,7.97,18.53,19.1,18.53,19.2-7.58,19.2-18.53Z"/>
      <path class="cls-1" d="M253.62,48.09h-42.24c.77,10.56,8.83,17.57,19.87,17.57,6.14,0,11.62-2.21,15.46-6.62l3.84,4.42c-4.51,5.38-11.52,8.26-19.49,8.26-15.74,0-26.49-10.75-26.49-25.73s10.46-25.63,24.67-25.63,24.48,10.46,24.48,25.63c0,.58-.1,1.34-.1,2.11Zm-42.24-5.09h35.8c-.86-9.89-8.06-16.8-17.95-16.8s-16.99,6.91-17.85,16.8Z"/>
      <path class="cls-1" d="M306.9,41.95v29.28h-6.82v-28.61c0-10.66-5.57-16.13-15.17-16.13-10.85,0-17.66,6.72-17.66,18.24v26.49h-6.82V20.73h6.53v9.31c3.65-6.14,10.46-9.7,19.2-9.7,12.29,0,20.73,7.1,20.73,21.6Z"/>
      <path class="cls-1" d="M364.5,0V71.23h-6.53v-9.98c-4.13,6.82-11.14,10.46-19.49,10.46-14.4,0-25.15-10.46-25.15-25.73s10.75-25.63,25.15-25.63c8.06,0,14.98,3.46,19.2,9.98V0h6.82Zm-6.72,45.98c0-11.81-8.06-19.68-18.72-19.68s-18.81,7.87-18.81,19.68,8.06,19.68,18.81,19.68,18.72-7.87,18.72-19.68Z"/>
      <path class="cls-1" d="M420.27,48.09h-42.24c.77,10.56,8.83,17.57,19.87,17.57,6.14,0,11.62-2.21,15.46-6.62l3.84,4.42c-4.51,5.38-11.52,8.26-19.49,8.26-15.74,0-26.49-10.75-26.49-25.73s10.46-25.63,24.67-25.63,24.48,10.46,24.48,25.63c0,.58-.1,1.34-.1,2.11Zm-42.24-5.09h35.8c-.86-9.89-8.06-16.8-17.95-16.8s-16.99,6.91-17.85,16.8Z"/>
      <path class="cls-1" d="M437.07,62.3l5.57-6.53c3.65,5.18,8.35,7.97,14.01,7.97,7.58,0,11.52-4.61,11.52-13.63V12.38h-24.29V4.03h33.79V49.63c0,14.98-7.3,22.37-21.02,22.37-7.97,0-15.26-3.46-19.58-9.7Z"/>
      <path class="cls-1" d="M529.04,40.51v30.72h-8.74v-6.72c-3.07,4.61-8.74,7.3-16.7,7.3-11.52,0-18.81-6.14-18.81-14.97,0-8.16,5.28-14.88,20.45-14.88h14.59v-1.82c0-7.78-4.51-12.29-13.63-12.29-6.05,0-12.19,2.11-16.13,5.47l-3.84-6.91c5.28-4.22,12.86-6.53,21.02-6.53,13.92,0,21.79,6.72,21.79,20.64Zm-9.22,15.17v-7.1h-14.21c-9.12,0-11.71,3.55-11.71,7.87,0,5.09,4.22,8.26,11.23,8.26s12.38-3.17,14.69-9.02Zm-10.46-42.72h-8.64l13.06-12.48h11.71l-16.13,12.48Z"/>
    </g>
  </g>
</svg>