<?xml version="1.0" encoding="UTF-8"?>
<svg id="Camada_2" data-name="Camada 2" xmlns="http://www.w3.org/2000/svg" xmlns:xlink="http://www.w3.org/1999/xlink" viewBox="0 0 61.39 68.21">
  <defs>
    <style>
      .cls-1 {
        fill: url(#Gradiente_sem_nome_45);
      }
    </style>
    <linearGradient id="Gradiente_sem_nome_45" data-name="Gradiente sem nome 45" x1="0" y1="34.11" x2="61.39" y2="34.11" gradientUnits="userSpaceOnUse">
      <stop offset="0" stop-color="#7bc7ff"/>
      <stop offset=".36" stop-color="#68b7f3"/>
      <stop offset="1" stop-color="#4b9fe1"/>
    </linearGradient>
  </defs>
  <g id="Camada_1-2" data-name="Camada 1">
    <path class="cls-1" d="M5.12,68.21c-1.36,0-2.56-.51-3.58-1.53-1.02-1.02-1.53-2.22-1.53-3.58V10.23c0-1.36,.51-2.56,1.53-3.58,1.02-1.02,2.22-1.53,3.58-1.53h5.54V0h5.54V5.12h28.99V0h5.54V5.12h5.54c1.36,0,2.56,.51,3.58,1.53s1.53,2.22,1.53,3.58V63.1c0,1.36-.51,2.56-1.53,3.58s-2.22,1.53-3.58,1.53H5.12Zm0-5.12H56.27V26.43H5.12V63.1Zm0-41.78H56.27V10.23H5.12v11.08Zm0,0v0Zm25.58,19.61c-.97,0-1.78-.33-2.43-.98s-.98-1.46-.98-2.43,.33-1.78,.98-2.43c.65-.65,1.46-.98,2.43-.98s1.78,.33,2.43,.98c.65,.65,.98,1.46,.98,2.43s-.33,1.78-.98,2.43c-.65,.65-1.46,.98-2.43,.98Zm-13.64,0c-.97,0-1.78-.33-2.43-.98-.65-.65-.98-1.46-.98-2.43s.33-1.78,.98-2.43c.65-.65,1.46-.98,2.43-.98s1.78,.33,2.43,.98,.98,1.46,.98,2.43-.33,1.78-.98,2.43-1.46,.98-2.43,.98Zm27.28,0c-.97,0-1.78-.33-2.43-.98s-.98-1.46-.98-2.43,.33-1.78,.98-2.43,1.46-.98,2.43-.98,1.78,.33,2.43,.98c.65,.65,.98,1.46,.98,2.43s-.33,1.78-.98,2.43-1.46,.98-2.43,.98Zm-13.64,13.64c-.97,0-1.78-.33-2.43-.98-.65-.65-.98-1.46-.98-2.43s.33-1.78,.98-2.43c.65-.65,1.46-.98,2.43-.98s1.78,.33,2.43,.98c.65,.65,.98,1.46,.98,2.43s-.33,1.78-.98,2.43c-.65,.65-1.46,.98-2.43,.98Zm-13.64,0c-.97,0-1.78-.33-2.43-.98-.65-.65-.98-1.46-.98-2.43s.33-1.78,.98-2.43,1.46-.98,2.43-.98,1.78,.33,2.43,.98,.98,1.46,.98,2.43-.33,1.78-.98,2.43-1.46,.98-2.43,.98Zm27.28,0c-.97,0-1.78-.33-2.43-.98s-.98-1.46-.98-2.43,.33-1.78,.98-2.43,1.46-.98,2.43-.98,1.78,.33,2.43,.98c.65,.65,.98,1.46,.98,2.43s-.33,1.78-.98,2.43c-.65,.65-1.46,.98-2.43,.98Z"/>
  </g>
</svg>